Coordinates
version=1
nRows=13
nColumns=36
inDegrees=yes

Units are S.I. units (second, meters, Newtons, ...)
If the header above contains a line with 'inDegrees', this indicates whether rotational values are in degrees (yes) or radians (no).

endheader
time	pelvis_tilt	pelvis_list	pelvis_rotation	pelvis_tx	pelvis_ty	pelvis_tz	hip_flexion_r	hip_adduction_r	hip_rotation_r	knee_angle_r	knee_angle_r_beta	ankle_angle_r	subtalar_angle_r	mtp_angle_r	hip_flexion_l	hip_adduction_l	hip_rotation_l	knee_angle_l	knee_angle_l_beta	ankle_angle_l	subtalar_angle_l	mtp_angle_l	lumbar_extension	lumbar_bending	lumbar_rotation	arm_flex_r	arm_add_r	arm_rot_r	elbow_flex_r	pro_sup_r	arm_flex_l	arm_add_l	arm_rot_l	elbow_flex_l	pro_sup_l
      1.65000000	    -18.99952394	      3.38950442	     -6.45794349	     -0.29801334	      0.60039532	     -0.59840884	     89.26092150	     -0.36241764	     11.56415966	    107.73919167	      1.88040363	     33.99354442	    -13.92510338	     -7.49915454	     89.79451271	     -4.43944067	      3.26390337	    107.08069628	      1.86891072	     31.46151443	    -19.04078949	     -7.49915454	    -27.96430878	      0.17371612	     -1.19139821	    -13.52402133	    -15.60315888	    -27.10095312	    101.62204421	    110.41140882	    -19.22459714	    -21.24569001	    -20.12724246	     96.71591167	    106.79053002
      1.66000000	    -19.73250330	      3.64934836	     -6.26297620	     -0.29786338	      0.59403082	     -0.59943823	     90.68406491	     -0.47998718	     12.01441997	    108.62961645	      1.89594447	     34.25627987	    -13.83923215	     -7.49916382	     91.14096843	     -3.87556913	      3.45102140	    107.89272238	      1.88308324	     31.74494584	    -19.03289396	     -7.49916382	    -28.27380274	     -0.06378462	     -1.12749339	     -9.06245603	    -14.65817364	    -25.12893386	    102.04329034	    110.80764198	    -13.02024010	    -20.38162500	    -17.96798610	     96.95312195	    106.85915672
      1.67000000	    -20.50469586	      3.76042946	     -6.17752550	     -0.29797515	      0.58769624	     -0.59990439	     92.08653029	     -0.34078937	     12.30255227	    109.43362708	      1.90997710	     34.45729417	    -13.90574849	     -7.49916626	     92.62732068	     -3.61090106	      3.70866568	    108.76681257	      1.89833900	     31.85048617	    -19.08726741	     -7.49916626	    -28.66882547	     -0.27000371	     -1.26324903	     -4.22462394	    -13.32017824	    -23.31520341	    103.10320855	    111.04081659	     -7.40693799	    -19.13577195	    -16.49863615	     98.23697230	    107.02082130
      1.68000000	    -21.14861223	      3.92465024	     -6.02207394	     -0.29802038	      0.58247898	     -0.60025342	     93.24491862	     -0.30323898	     12.65612241	    110.12335629	      1.92201515	     35.00786043	    -13.38872080	     -7.49920487	     93.86729300	     -3.30107299	      3.81279067	    109.43424892	      1.90998796	     31.91892223	    -19.00436957	     -7.49920487	    -28.87160441	     -0.52999793	     -0.05937906	     -0.41803968	    -12.69391545	    -22.19956384	    103.90910336	    112.54217659	      0.48903475	    -18.55399169	    -11.79272515	     96.68102938	    106.53660896
      1.69000000	    -21.49001995	      4.23623600	     -5.81629706	     -0.29798842	      0.57836242	     -0.60031694	     94.09674587	     -0.34377049	     13.15105399	    110.77478705	      1.93338476	     35.00384844	    -13.45244659	     -7.49921210	     94.65479861	     -3.04649125	      3.64720777	    109.94767253	      1.91894889	     31.85256444	    -18.90592969	     -7.49921210	    -29.64089153	     -1.03874665	     -0.42483813	      4.77572712	    -11.81039235	    -19.54520215	    104.26761411	    112.89501040	      6.83904688	    -17.41691004	     -9.72422316	     96.72495693	    106.57286044
      1.70000000	    -21.89601862	      4.68419952	     -5.47554741	     -0.29788307	      0.57460938	     -0.60040153	     95.01117054	     -0.50926115	     13.79612049	    111.42371871	      1.94471076	     35.00918750	    -13.45601619	     -7.49922083	     95.43033387	     -2.73957302	      3.27232525	    110.33323623	      1.92567825	     31.91751054	    -18.83394349	     -7.49922083	    -30.21116390	     -1.66398520	     -0.84351378	      9.80151095	    -10.92541569	    -16.62938158	    104.24139784	    113.26311460	     13.38500864	    -16.31204786	     -6.88426133	     96.20001978	    106.68045401
      1.71000000	    -22.25552115	      5.01648256	     -5.10498330	     -0.29779090	      0.57170354	     -0.60053933	     95.74929546	     -0.71936642	     14.30313034	    111.88199347	      1.95270916	     35.00968567	    -13.42610396	     -7.49922729	     96.02848291	     -2.45099411	      2.99093990	    110.54340725	      1.92934642	     31.95547810	    -18.71493387	     -7.49922729	    -30.90494977	     -2.16982991	     -1.28064990	     14.78668792	    -10.02954855	    -13.72385212	    104.15554246	    113.54247439	     19.82836921	    -14.90339991	     -4.10552226	     95.82809430	    106.87716009
      1.72000000	    -22.54975030	      5.23470025	     -4.77160610	     -0.29756599	      0.56947469	     -0.60063857	     96.28906712	     -0.86809850	     14.70252464	    112.24678375	      1.95907595	     35.02372617	    -13.38076354	     -7.49923248	     96.51325677	     -2.21168988	      2.77468572	    110.70714278	      1.93220415	     32.00939127	    -18.61701769	     -7.49923248	    -31.62587759	     -2.57300724	     -1.67667280	     19.77732630	     -9.07948601	    -10.77332705	    103.97318855	    113.77983633	     26.00488516	    -13.37709545	     -1.13966456	     95.55239832	    107.10957058
      1.73000000	    -22.68082955	      5.57462309	     -4.50399112	     -0.29701507	      0.56775629	     -0.60072465	     96.66470778	     -1.01556135	     15.26225414	    112.67698304	      1.96658435	     35.15985456	    -13.23241779	     -7.49924660	     96.79761288	     -2.06894279	      2.37362870	    110.92086442	      1.93593429	     32.18614760	    -18.51319363	     -7.49924660	    -32.30154760	     -3.14025280	     -1.87976865	     24.58735946	     -8.50908991	     -7.57681787	    103.50338563	    114.09306404	     32.40514179	    -12.20910603	      3.24707011	     94.33815037	    107.44894476
      1.74000000	    -22.79059029	      5.66654274	     -4.23574437	     -0.29627919	      0.56702473	     -0.60089014	     96.80197030	     -1.17186052	     15.52634948	    112.89091053	      1.97031808	     35.15771021	    -13.20367159	     -7.49925447	     96.98825334	     -1.99806627	      2.19587206	    111.02180546	      1.93769605	     32.03110778	    -18.22478918	     -7.49925447	    -33.14997297	     -3.35893361	     -2.13966956	     29.48184977	     -7.72683741	     -4.41912359	    103.38542870	    114.29907150	     38.28823246	    -10.50335164	      6.53363232	     94.08571685	    107.70534263
      1.75000000	    -22.98852292	      5.62628005	     -4.16015814	     -0.29549031	      0.56694204	     -0.60041788	     96.85641465	     -1.00234161	     15.61094319	    112.90512849	      1.97056623	     35.17377397	    -13.26724999	     -7.49926115	     97.15883186	     -2.24524589	      2.14279200	    111.02187336	      1.93769723	     31.97612219	    -17.96012715	     -7.49926115	    -33.77375711	     -3.55460523	     -2.21702859	     34.23378733	     -6.69092218	     -1.33832199	    103.27304844	    114.45291090	     43.90687777	     -8.78254790	      9.79973243	     93.98290061	    107.96859708
      1.76000000	    -23.13605099	      5.49360376	     -4.06202339	     -0.29456742	      0.56752929	     -0.59990782	     96.74121591	     -0.80952847	     15.62020019	    112.85555072	      1.96970094	     35.17454934	    -13.42242142	     -7.49926888	     97.19667084	     -2.44927169	      2.18457053	    110.95419339	      1.93651599	     32.04085645	    -17.68372195	     -7.49926888	    -34.34164238	     -3.62574415	     -2.29608997	     38.86207523	     -5.54832969	      1.53510614	    103.42218474	    114.57551319	     49.32313201	     -6.97778675	     12.91615760	     94.10614199	    108.25500276
      1.77000000	    -23.29072806	      5.38934282	     -3.84846863	     -0.29338926	      0.56876384	     -0.59985408	     96.53836783	     -0.79328583	     15.67670145	    112.69900437	      1.96696869	     35.14275178	    -13.56652134	     -7.49927584	     97.10666492	     -2.44477854	      2.17053911	    110.73348713	      1.93266394	     32.13035531	    -17.43230138	     -7.49927584	    -34.78504030	     -3.57670457	     -2.48761997	     43.33231861	     -4.31377557	      4.20443669	    103.96993204	    114.70509816	     54.32130822	     -4.98845938	     15.57112799	     94.67235115	    108.53191192
